
<global>
amp_veltrack=0
ampeg_release=0.35
</global>

<group>
group_label=Group_0-64
lpc_hicc1=64
lpc_locc1=0

<region>
hikey=A#5
hivel=127
lokey=A5
lovel=1
lpc=K9qgQdB7ycErjq9Bg24gwevnLEF+OMPAkfv6QFn6A8BKpodAH8hPvsz9b0CYagI+4ZY9QOq+1j7RZkFA6OSPP/PIMEDqoxK+ewOlQKQtF8B96a9AQVQhwFaTBEEKBm7A
lpc_rms=-30.62
pitch_keycenter=A#5
sample=Piccolo_invertedmordent_semitone_PP_A#4.opus
</region>

<region>
hikey=A#6
hivel=127
lokey=A6
lovel=1
lpc=+m+hQQxPUMFKzjNB8JMjwDK/10Bb2HA/JM8uQZ7OXL5O3+dA1KwWP0TfzkA0PIBA8+S6wHnTp8DPBJ5A75gSwEsvhr60uI+/D6FUwEkvHMBLhzXAtqWdv0ENgb9ELWDA
lpc_rms=-30.62
pitch_keycenter=A#6
sample=Piccolo_invertedmordent_semitone_PP_A#5.opus
</region>

<region>
hikey=C6
hivel=127
lokey=B5
lovel=1
lpc=eNkrQUBJLMFgviZBEjndwPQQ+kBcX47AahmvQEfwIMBla11AQ/pwv7HcMEA4mMK+9rT0PyaYtT556JM/uDSWP+19lz9IUgw/pfxxP5y+8j/YiEY+Ty9WP1zFW8BaLIw/
lpc_rms=-39.29
pitch_keycenter=C6
sample=Piccolo_invertedmordent_semitone_PP_C5.opus
</region>

<region>
hikey=C7
hivel=127
lokey=B6
lovel=1
lpc=UbDSQaZ8bsGrYJlBrMqWwBvwUkG7KY5AN8V/QcfExr6b/GJBcC5OQEFZVkGuH0rBzs0GQFMP+z/FPDa/FqgTQFzdZsDG/5PADRqCvy0GSz3GOaXAPIciQBs9+sDkFsVA
lpc_rms=-26.81
pitch_keycenter=C7
sample=Piccolo_invertedmordent_semitone_PP_C6.opus
</region>

<region>
hikey=D6
hivel=127
lokey=C#6
lovel=1
lpc=mb4MQieVCcILM7hBv0ySwenqaUEkaI3A3LRdQV+O0sDECUFBO3IAwFSdAkGhruG+NcLIQLWJQD7va/9A2ymZvUXm20A3OwpAO/HdQLFgXcAqrRPBl7B1QHyZtECknuNA
lpc_rms=-30.20
pitch_keycenter=D6
sample=Piccolo_invertedmordent_semitone_PP_D5.opus
</region>

<region>
hikey=D7
hivel=127
lokey=C#7
lovel=1
lpc=FC7LQYjNlsE+IIxB0uSUwAjxNUFdD6hAD7zmQPJ2AEBZAQBBcUxUP8/x9cC7TrhAFMoKvnyIqD9yKwM/ssYcwC5EyT+Eyjs/RrIUQNWYEEB6OqPAsJsDQZ+VJb5wLPc/
lpc_rms=-25.48
pitch_keycenter=D7
sample=Piccolo_invertedmordent_semitone_PP_D6.opus
</region>

<region>
hivel=127
key=E5
lovel=1
lpc=v5RdQYvDycEWqdFBqKfNwSgjtUGBXoHB+PlXQbH5RcHveiJBOQv2wMM/xkDgpWjAFFeDQAvdu79w4IW/9noNP0NaXD9+i8i/Ols/QJ3KIcDQpqk/Zxd/v3FMDEA44Eo+
lpc_rms=-38.98
sample=Piccolo_invertedmordent_semitone_PP_E4.opus
</region>

<region>
hikey=E6
hivel=127
lokey=D#6
lovel=1
lpc=mnaPQbzijsGw4lJBn/ATwXgzDEGo+ci/sn+uQAtK6L8TQNVAvCTnPnP6XUA1dc8/PLcmQJIHSUA7JAhA6MJcQBuQFEDAQ7S/XlKMwNHTwEBESDM/6RmRQJum4b/tIM8/
lpc_rms=-33.27
pitch_keycenter=E6
sample=Piccolo_invertedmordent_semitone_PP_E5.opus
</region>

<region>
hikey=E7
hivel=127
lokey=D#7
lovel=1
lpc=ZPa+QUwVlcFpZDpBOdbKwN+3+kBozu8+2guKPhNg2T95AZrA86lXweajHEAMR7i9HfcCQJDZ9b88pQw/n5oavyFsI0AeVJg/79a8vy7KwkBop7O+jdgQwGqc6z7i5hnA
lpc_rms=-26.23
pitch_keycenter=E7
sample=Piccolo_invertedmordent_semitone_PP_E6.opus
</region>

<region>
hikey=F#5
hivel=127
lokey=F5
lovel=1
lpc=gQf4QPFeTMHNvy5BD8INwdFLG0F0MP7AYb3WQLVLpcBBCGZAA4QPwFPNBEDc0te+w8WbP3fVK78v2Zc+8vnyvsSLxz45zkM+GyUwP8thAz8eiKs891jyPUQprb/g3g9A
lpc_rms=-40.74
pitch_keycenter=F#5
sample=Piccolo_invertedmordent_semitone_PP_F#4.opus
</region>

<region>
hikey=F#6
hivel=127
lokey=F6
lovel=1
lpc=dcJ+QZF8esHxNiNBr/qrwJF1EkEGxjy+51ODQB1Ejj8ANClA236bQMEZrD+hloFA7gBkQBrUiUBf2zdAYUuEv/N+cL9/0Y1Aa8SMQDJfrj+bXvC+q3EAPX1Uez9oPgFA
lpc_rms=-33.46
pitch_keycenter=F#6
sample=Piccolo_invertedmordent_semitone_PP_F#5.opus
</region>

<region>
hikey=F#7
hivel=127
lokey=F7
lovel=1
lpc=unqDQQJTZsFcW4pBTZ8OwUUEjkGw+MnANp5yQfMRpsCb5Ro++PcOQYoP07814a1Ai4UAwIR5WEDuWrc9FATZPlYnCT5d2ZBANa+qv5zjlkBDTRvAPU2lQC8MD8Ch3ZBA
lpc_rms=-12.82
pitch_keycenter=F#7
sample=Piccolo_invertedmordent_semitone_PP_F#6.opus
</region>

<region>
hikey=G#5
hivel=127
lokey=G5
lovel=1
lpc=1h2AQa/zxMFTs8FBQjR9wTkAgUF+fWrB+NJ7QWLsG8GYcehAaZBVwJwAuUCnzAXATFJ7P1PWLUD6NA0+AWqlPzB0ab9DnJZA6Abkv2VJOkCJFsa/quC9QLKgwcC+d+JA
lpc_rms=-31.00
pitch_keycenter=G#5
sample=Piccolo_invertedmordent_semitone_PP_G#4.opus
</region>

<region>
hikey=G#6
hivel=127
lokey=G6
lovel=1
lpc=QJ0HQZkBxMDQu7dAIRcBwJtMfkBZ14e+2jJTQNNHtD8m5UxAVni+P7H5LEDUSsE/9eI+QCLNtj9FUR7ALYq4PwllLECEDgG/lePbP8ujxLx4WAc/mz1hvrM8jL5nLw++
lpc_rms=-37.58
pitch_keycenter=G#6
sample=Piccolo_invertedmordent_semitone_PP_G#5.opus
</region>

<region>
hikey=G#7
hivel=127
lokey=G7
lovel=1
lpc=2nttQUV3GcFc719B3YMWv+iZPUESoUJA9MUfQS0qTMCR90BBkiUjvjpmDkFO528/bcO4QBBLGEBFOh9A6kbjQCn4uz/AXbVA/5ibP6Wmt0BYFwk/I+jAP6o4VUAn7EK/
lpc_rms=-14.81
pitch_keycenter=G#7
sample=Piccolo_invertedmordent_semitone_PP_G#6.opus
</region>
</group>

<group>
group_label=Group_65-127
lpc_hicc1=127
lpc_locc1=65

<region>
hikey=A#5
hivel=127
lokey=A5
lovel=1
lpc=3outQShrysFF+PZBs/GcwRAYs0FP7TrBWaVbQTqkBsABb2BAPlbDQDwvxD1uN8ZAxbhdPw1fhED5g35Ai+miP3zk/0DBp43AL7w+QZvQj8ADDCFBp1cmwMaOBkHicBE/
lpc_rms=-23.32
pitch_keycenter=A#5
sample=Piccolo_invertedmordent_semitone_FF_A#4.opus
</region>

<region>
hikey=A#6
hivel=127
lokey=A6
lovel=1
lpc=UwvdQQlkwsH71rdB0pcOwWhMiUEQgJu/B+1vQU+uQUB3WhhBjloAQf6kp0AkFmpBTkS+wNv7O8C23JhBufYBweeIP0HEEgDB4sn6QE36vcAz/E5AtCslwCGFQUCwTE/A
lpc_rms=-21.66
pitch_keycenter=A#6
sample=Piccolo_invertedmordent_semitone_FF_A#5.opus
</region>

<region>
hikey=C6
hivel=127
lokey=B5
lovel=1
lpc=+rqZQQrCyMGv58VBX9V3wSRGekFLfAfB2EUuQeM2kcCLxdFA8FqMvz0OjUBDj4M//oE1QFu0AEAXnDg/Gn+MQPExSD/vVhZA+fYHQP1JC0BkLClAx6CmP0Sd6MADr8ZA
lpc_rms=-25.64
pitch_keycenter=C6
sample=Piccolo_invertedmordent_semitone_FF_C5.opus
</region>

<region>
hikey=C7
hivel=127
lokey=B6
lovel=1
lpc=u45JQodB68EfgvtBzIKiPgok30Hu5HpBSwqeQTRljkEuaN1BPD4pQaJcEkI3V8/BsQu4QaCQcUFAWBhA1DcxQdGmEsH+OjFBbfRiwACbND5Ad8g7ESB/P6dyjsB5zb1A
lpc_rms=-15.19
pitch_keycenter=C7
sample=Piccolo_invertedmordent_semitone_FF_C6.opus
</region>

<region>
hikey=D6
hivel=127
lokey=C#6
lovel=1
lpc=C/rGQdHX2sGpGpBBToQcwRL4IkEmog7Aqmh5QMK/Q0BpIsk/vMWFQNAQ+z4Mu0JAC2ozQJweGj/PrIdA+E/ZP+h2MUAYxARAVeyZQFDQgcDx9NLAQz/mQIaJOEDeuwY/
lpc_rms=-26.25
pitch_keycenter=D6
sample=Piccolo_invertedmordent_semitone_FF_D5.opus
</region>

<region>
hikey=D7
hivel=127
lokey=C#7
lovel=1
lpc=xOmvQZHyZ8EEXnxB114awIpUV0Gfb6pAYEgvQYc5ukC/yC5BTQfLQOYNv77XL0lBonGbQDWv5ECvUKJAv6zNQOrcsUC9KcFAQMu3QJSPtkB3kwHAPyb+QAX19D/b9GhA
lpc_rms=-23.36
pitch_keycenter=D7
sample=Piccolo_invertedmordent_semitone_FF_D6.opus
</region>

<region>
hivel=127
key=E5
lovel=1
lpc=TqBPQQ4W2sFvYuhBQqHHwTSTpEHPSXDBNuMoQQf94cCiLt5A4QGpwBuATED74TTAnPFxQC19gcAv3ThAlc6iv77iAEBhZTu/rfWUPt4TAD92Enu/ICNCP8SN+b/ocS9A
lpc_rms=-31.54
sample=Piccolo_invertedmordent_semitone_FF_E4.opus
</region>

<region>
hikey=E6
hivel=127
lokey=D#6
lovel=1
lpc=BYFqQTB1j8E+yndBcWL/wO/oB0FEB13A9sgnQIQFAkBGnTtAB54QQOeVDUCJqpM/oPyAQNvahj/0Ty1AP8ITQNc9PEBVlrq/xrw9wA2L30DJTDG/hFJIPzaPlL5jd1FA
lpc_rms=-30.99
pitch_keycenter=E6
sample=Piccolo_invertedmordent_semitone_FF_E5.opus
</region>

<region>
hikey=E7
hivel=127
lokey=D#7
lovel=1
lpc=eW/kQRcogsGtjHxB+SOUPrfAW0FrkgRBRkIPQcKhGUH+7bBAOxIawXWAgkHjmw2/TEIYQZBxw788iIxA5X2CPx1gc0C5OhxA4z2HwDMsD0E2BSfAKkIVP+ugVb86oCe/
lpc_rms=-22.99
pitch_keycenter=E7
sample=Piccolo_invertedmordent_semitone_FF_E6.opus
</region>

<region>
hikey=F#5
hivel=127
lokey=F5
lovel=1
lpc=nO8IQfHBhMHyq4BBsa49wc5SJEEgfvjA0J7rQH6i3cDMrL5AOFqQwIdLd0BLZhLA9TIeQNzWlr92fF4/QsmPv42oCz/BHf8+0raSP6Q9nb04dYa/fezkP88wJMBiGy1A
lpc_rms=-32.44
pitch_keycenter=F#5
sample=Piccolo_invertedmordent_semitone_FF_F#4.opus
</region>

<region>
hikey=F#6
hivel=127
lokey=F6
lovel=1
lpc=abDlQdSF9MFWMtNB0VYVwU/1UkF1upzARiIzQQ6vhEAp579AjEf4QGZhm0DIAeBA/l2oQKBA/kBKZ6xAZs+BvkiTt8B4TG1BFCaGv47/E0BiyCNApjwnQDSVvT/xWX+/
lpc_rms=-24.41
pitch_keycenter=F#6
sample=Piccolo_invertedmordent_semitone_FF_F#5.opus
</region>

<region>
hikey=F#7
hivel=127
lokey=F7
lovel=1
lpc=unqDQQJTZsFcW4pBTZ8OwUUEjkGw+MnANp5yQfMRpsCb5Ro++PcOQYoP07814a1Ai4UAwIR5WEDuWrc9FATZPlYnCT5d2ZBANa+qv5zjlkBDTRvAPU2lQC8MD8Ch3ZBA
lpc_rms=-12.82
pitch_keycenter=F#7
sample=Piccolo_invertedmordent_semitone_FF_F#6.opus
</region>

<region>
hikey=G#5
hivel=127
lokey=G5
lovel=1
lpc=SJKFQX4g98HNRRFC9RbZwYrdrUHr/HrBWStVQZH1o8BnJydAXoGuvh8ucEBROpC/muRHPxtSI0AyrvQ9O0/PPv6Rnj+RHS5Abfuav+oP7D/IYCK8Yvi9QJyt98AO8/pA
lpc_rms=-25.51
pitch_keycenter=G#5
sample=Piccolo_invertedmordent_semitone_FF_G#4.opus
</region>

<region>
hikey=G#6
hivel=127
lokey=G6
lovel=1
lpc=pYPaQWF2y8FNx6hBJmkSwc0hKEEMg2zAdmMBQfnkskCp8kJAYe4nQAhxS0DhcSJADWItQA89S0CUa5HByDBKQXWP1b+TJN+/+MUlQIF46r+UfZU/sLK/wJCvTj6ivkO/
lpc_rms=-21.88
pitch_keycenter=G#6
sample=Piccolo_invertedmordent_semitone_FF_G#5.opus
</region>

<region>
hikey=G#7
hivel=127
lokey=G7
lovel=1
lpc=2nttQUV3GcFc719B3YMWv+iZPUESoUJA9MUfQS0qTMCR90BBkiUjvjpmDkFO528/bcO4QBBLGEBFOh9A6kbjQCn4uz/AXbVA/5ibP6Wmt0BYFwk/I+jAP6o4VUAn7EK/
lpc_rms=-14.81
pitch_keycenter=G#7
sample=Piccolo_invertedmordent_semitone_FF_G#6.opus
</region>
</group>